# xmcd
#
# Track frame offsets:
#	150
#	15936
#	30527
#	47042
#	65651
#	79904
#	92753
#	110698
#	125211
#	135018
#	151688
#	163523
#	177828
#	186569
#	200458
#	211747
#	223893
#	243865
#	254088
#	261997
#
# Disc length: 3603 seconds
#
# Revision: 3
# Processed by: cddbd v1.5.2PL0 Copyright (c) Steve Scherf et al.
# Submitted via: EasyCDDAExtractor 12.0.1.1
#
DISCID=1c0e1114
DTITLE=Gold Star Ballroom - Dancing Like The Stars
DYEAR=2006
DGENRE=Dance
TTITLE0=CC 31 - Madonna Medley
TTITLE1=CC 31 - Venus
TTITLE2=RB 26 - Killing Me Softly
TTITLE3=RB 25 - You've Got A Friend
TTITLE4=SB 49 - Nights On Broadway
TTITLE5=SB 50 - One Note De Samba
TTITLE6=JV 45 - Livin' La Vida Loca
TTITLE7=JV 45 - Footloose
TTITLE8=PD 60 - El Gatos Montes
TTITLE9=PD 61 - Y Viva Espana
TTITLE10=TG 33 - Green, Green Grass Of Home
TTITLE11=TG 31 - Take Me To The River
TTITLE12=SF 29 - The More I See You
TTITLE13=SF 28 - Layla
TTITLE14=QS 50 - Marakesh Express
TTITLE15=QS 50 - Country Roads
TTITLE16=EW 29 - Candle In The Wind
TTITLE17=EW 29 - Jessie
TTITLE18=WW 60 - Wonderful Copenhagen
TTITLE19=WW 59 - Nights In White Satin
EXTD=
EXTT0=
EXTT1=
EXTT2=
EXTT3=
EXTT4=
EXTT5=
EXTT6=
EXTT7=
EXTT8=
EXTT9=
EXTT10=
EXTT11=
EXTT12=
EXTT13=
EXTT14=
EXTT15=
EXTT16=
EXTT17=
EXTT18=
EXTT19=
PLAYORDER=
